<mxfile host="app.diagrams.net" modified="2023-04-21T14:10:12.281Z" agent="Mozilla/5.0 (X11; Linux x86_64) AppleWebKit/537.36 (KHTML, like Gecko) Chrome/112.0.0.0 Safari/537.36" etag="-4W-zquwU30syW2aPZuS" version="21.1.5" type="device">
  <diagram name="Page-1" id="gLaqNSCD2Wre-OvLz2Zg">
    <mxGraphModel dx="1434" dy="802" grid="1" gridSize="10" guides="1" tooltips="1" connect="1" arrows="1" fold="1" page="1" pageScale="1" pageWidth="850" pageHeight="1100" math="0" shadow="0">
      <root>
        <mxCell id="0" />
        <mxCell id="1" parent="0" />
        <mxCell id="-CeY543HGaaSN3d9W1An-66" value="" style="endArrow=classic;startArrow=classic;html=1;rounded=0;fillColor=#0050ef;strokeColor=#001DBC;" edge="1" parent="1">
          <mxGeometry width="50" height="50" relative="1" as="geometry">
            <mxPoint x="210" y="500" as="sourcePoint" />
            <mxPoint x="210" y="20" as="targetPoint" />
          </mxGeometry>
        </mxCell>
        <mxCell id="1vKWB840Vi9tyg2xtz6n-2" value="" style="endArrow=none;html=1;rounded=0;" parent="1" edge="1">
          <mxGeometry width="50" height="50" relative="1" as="geometry">
            <mxPoint x="120" y="240" as="sourcePoint" />
            <mxPoint x="700" y="240" as="targetPoint" />
          </mxGeometry>
        </mxCell>
        <mxCell id="-CeY543HGaaSN3d9W1An-67" value="" style="endArrow=classic;startArrow=classic;html=1;rounded=0;fillColor=#0050ef;strokeColor=#001DBC;" edge="1" parent="1">
          <mxGeometry width="50" height="50" relative="1" as="geometry">
            <mxPoint x="450" y="500" as="sourcePoint" />
            <mxPoint x="450" y="20" as="targetPoint" />
          </mxGeometry>
        </mxCell>
        <mxCell id="-CeY543HGaaSN3d9W1An-43" value="" style="endArrow=none;dashed=1;html=1;rounded=0;" edge="1" parent="1">
          <mxGeometry width="50" height="50" relative="1" as="geometry">
            <mxPoint x="120" y="200.5" as="sourcePoint" />
            <mxPoint x="420" y="200" as="targetPoint" />
          </mxGeometry>
        </mxCell>
        <mxCell id="-CeY543HGaaSN3d9W1An-42" value="" style="endArrow=none;dashed=1;html=1;rounded=0;" edge="1" parent="1">
          <mxGeometry width="50" height="50" relative="1" as="geometry">
            <mxPoint x="120" y="160.5" as="sourcePoint" />
            <mxPoint x="420" y="160" as="targetPoint" />
          </mxGeometry>
        </mxCell>
        <mxCell id="1vKWB840Vi9tyg2xtz6n-1" value="" style="endArrow=none;html=1;rounded=0;" parent="1" edge="1">
          <mxGeometry width="50" height="50" relative="1" as="geometry">
            <mxPoint x="120" y="80" as="sourcePoint" />
            <mxPoint x="700" y="80" as="targetPoint" />
          </mxGeometry>
        </mxCell>
        <mxCell id="1vKWB840Vi9tyg2xtz6n-3" value="" style="endArrow=none;html=1;rounded=0;" parent="1" edge="1">
          <mxGeometry width="50" height="50" relative="1" as="geometry">
            <mxPoint x="120" y="400" as="sourcePoint" />
            <mxPoint x="700" y="400" as="targetPoint" />
          </mxGeometry>
        </mxCell>
        <mxCell id="1vKWB840Vi9tyg2xtz6n-7" value="" style="endArrow=none;dashed=1;html=1;rounded=0;" parent="1" edge="1">
          <mxGeometry width="50" height="50" relative="1" as="geometry">
            <mxPoint x="120" y="120.5" as="sourcePoint" />
            <mxPoint x="420" y="120" as="targetPoint" />
          </mxGeometry>
        </mxCell>
        <mxCell id="1vKWB840Vi9tyg2xtz6n-8" value="" style="endArrow=none;dashed=1;html=1;rounded=0;" parent="1" edge="1">
          <mxGeometry width="50" height="50" relative="1" as="geometry">
            <mxPoint x="120" y="280" as="sourcePoint" />
            <mxPoint x="430" y="280" as="targetPoint" />
          </mxGeometry>
        </mxCell>
        <mxCell id="1vKWB840Vi9tyg2xtz6n-9" value="" style="endArrow=none;dashed=1;html=1;rounded=0;" parent="1" edge="1">
          <mxGeometry width="50" height="50" relative="1" as="geometry">
            <mxPoint x="120" y="320" as="sourcePoint" />
            <mxPoint x="430" y="320" as="targetPoint" />
          </mxGeometry>
        </mxCell>
        <mxCell id="1vKWB840Vi9tyg2xtz6n-10" value="" style="endArrow=none;dashed=1;html=1;rounded=0;" parent="1" edge="1">
          <mxGeometry width="50" height="50" relative="1" as="geometry">
            <mxPoint x="120" y="360" as="sourcePoint" />
            <mxPoint x="430" y="360" as="targetPoint" />
          </mxGeometry>
        </mxCell>
        <mxCell id="1vKWB840Vi9tyg2xtz6n-33" value="" style="endArrow=none;html=1;rounded=0;" parent="1" edge="1">
          <mxGeometry width="50" height="50" relative="1" as="geometry">
            <mxPoint x="210" y="420" as="sourcePoint" />
            <mxPoint x="210" y="70" as="targetPoint" />
          </mxGeometry>
        </mxCell>
        <mxCell id="1vKWB840Vi9tyg2xtz6n-34" value="" style="endArrow=none;html=1;rounded=0;" parent="1" edge="1" source="-CeY543HGaaSN3d9W1An-60">
          <mxGeometry width="50" height="50" relative="1" as="geometry">
            <mxPoint x="290" y="420" as="sourcePoint" />
            <mxPoint x="290" y="70" as="targetPoint" />
          </mxGeometry>
        </mxCell>
        <mxCell id="-CeY543HGaaSN3d9W1An-5" value="" style="endArrow=classic;startArrow=classic;html=1;rounded=0;" edge="1" parent="1">
          <mxGeometry width="50" height="50" relative="1" as="geometry">
            <mxPoint x="40" y="60" as="sourcePoint" />
            <mxPoint x="210" y="60" as="targetPoint" />
          </mxGeometry>
        </mxCell>
        <mxCell id="-CeY543HGaaSN3d9W1An-14" value="&lt;b&gt;List of&lt;br&gt;T&lt;/b&gt;xs" style="whiteSpace=wrap;html=1;aspect=fixed;fillColor=#b0e3e6;strokeColor=#0e8088;container=0;" vertex="1" parent="1">
          <mxGeometry x="45" y="470" width="40" height="40" as="geometry">
            <mxRectangle x="75" y="480" width="50" height="25" as="alternateBounds" />
          </mxGeometry>
        </mxCell>
        <mxCell id="-CeY543HGaaSN3d9W1An-23" value="" style="group" vertex="1" connectable="0" parent="1">
          <mxGeometry x="120" y="80" width="70" height="140" as="geometry" />
        </mxCell>
        <mxCell id="1vKWB840Vi9tyg2xtz6n-18" value="" style="rounded=0;whiteSpace=wrap;html=1;fillColor=#dae8fc;strokeColor=#6c8ebf;movable=1;resizable=1;rotatable=1;deletable=1;editable=1;locked=0;connectable=1;container=0;" parent="-CeY543HGaaSN3d9W1An-23" vertex="1">
          <mxGeometry width="70" height="140" as="geometry" />
        </mxCell>
        <mxCell id="1vKWB840Vi9tyg2xtz6n-23" value="&lt;b&gt;Node 1&lt;/b&gt;" style="shape=umlActor;verticalLabelPosition=bottom;verticalAlign=top;html=1;outlineConnect=0;fillColor=#ffe6cc;strokeColor=#d79b00;movable=0;resizable=0;rotatable=0;deletable=0;editable=0;locked=1;connectable=0;" parent="-CeY543HGaaSN3d9W1An-23" vertex="1">
          <mxGeometry x="30" y="10" width="10" height="20" as="geometry" />
        </mxCell>
        <mxCell id="1vKWB840Vi9tyg2xtz6n-24" value="&lt;b&gt;Node 2&lt;/b&gt;" style="shape=umlActor;verticalLabelPosition=bottom;verticalAlign=top;html=1;outlineConnect=0;fillColor=#fff2cc;strokeColor=#d6b656;movable=0;resizable=0;rotatable=0;deletable=0;editable=0;locked=1;connectable=0;" parent="-CeY543HGaaSN3d9W1An-23" vertex="1">
          <mxGeometry x="30" y="50" width="10" height="20" as="geometry" />
        </mxCell>
        <mxCell id="1vKWB840Vi9tyg2xtz6n-25" value="&lt;b&gt;Node 3&lt;/b&gt;" style="shape=umlActor;verticalLabelPosition=bottom;verticalAlign=top;html=1;outlineConnect=0;fillColor=#f8cecc;strokeColor=#b85450;movable=0;resizable=0;rotatable=0;deletable=0;editable=0;locked=1;connectable=0;" parent="-CeY543HGaaSN3d9W1An-23" vertex="1">
          <mxGeometry x="30" y="90" width="10" height="20" as="geometry" />
        </mxCell>
        <mxCell id="-CeY543HGaaSN3d9W1An-3" value="&lt;b&gt;Quorum N&lt;/b&gt;" style="text;html=1;strokeColor=none;fillColor=none;align=center;verticalAlign=middle;whiteSpace=wrap;rounded=0;movable=0;resizable=0;rotatable=0;deletable=0;editable=0;locked=1;connectable=0;" vertex="1" parent="-CeY543HGaaSN3d9W1An-23">
          <mxGeometry width="70" height="10" as="geometry" />
        </mxCell>
        <mxCell id="-CeY543HGaaSN3d9W1An-33" value="&lt;b&gt;Partial Block&lt;/b&gt;" style="text;html=1;strokeColor=none;fillColor=none;align=center;verticalAlign=middle;whiteSpace=wrap;rounded=0;" vertex="1" parent="1">
          <mxGeometry x="15" y="460" width="100" height="10" as="geometry" />
        </mxCell>
        <mxCell id="-CeY543HGaaSN3d9W1An-35" value="Block:&lt;br&gt;List of Partial Blocks" style="text;html=1;strokeColor=none;fillColor=none;align=center;verticalAlign=middle;whiteSpace=wrap;rounded=0;fontStyle=1" vertex="1" parent="1">
          <mxGeometry y="380" width="130" height="30" as="geometry" />
        </mxCell>
        <mxCell id="-CeY543HGaaSN3d9W1An-44" value="&lt;b&gt;Client&lt;/b&gt;" style="shape=umlActor;verticalLabelPosition=bottom;verticalAlign=top;html=1;outlineConnect=0;fillColor=#f0a30a;strokeColor=#BD7000;fontColor=#000000;" vertex="1" parent="1">
          <mxGeometry x="30" y="210" width="20" height="40" as="geometry" />
        </mxCell>
        <mxCell id="-CeY543HGaaSN3d9W1An-45" value="&lt;b&gt;Mod&lt;/b&gt;" style="rhombus;whiteSpace=wrap;html=1;fillColor=#dae8fc;strokeColor=#6c8ebf;" vertex="1" parent="1">
          <mxGeometry x="60" y="110" width="50" height="50" as="geometry" />
        </mxCell>
        <mxCell id="-CeY543HGaaSN3d9W1An-46" value="&lt;b&gt;Mod&lt;/b&gt;" style="rhombus;whiteSpace=wrap;html=1;fillColor=#fff2cc;strokeColor=#d6b656;" vertex="1" parent="1">
          <mxGeometry x="55" y="290" width="50" height="50" as="geometry" />
        </mxCell>
        <mxCell id="-CeY543HGaaSN3d9W1An-48" value="" style="endArrow=none;html=1;rounded=0;entryX=0.5;entryY=1;entryDx=0;entryDy=0;" edge="1" parent="1" target="-CeY543HGaaSN3d9W1An-45">
          <mxGeometry width="50" height="50" relative="1" as="geometry">
            <mxPoint x="50" y="220" as="sourcePoint" />
            <mxPoint x="450" y="220" as="targetPoint" />
          </mxGeometry>
        </mxCell>
        <mxCell id="-CeY543HGaaSN3d9W1An-49" value="" style="endArrow=none;html=1;rounded=0;entryX=0.5;entryY=0;entryDx=0;entryDy=0;exitX=1;exitY=0.3333333333333333;exitDx=0;exitDy=0;exitPerimeter=0;" edge="1" parent="1" source="-CeY543HGaaSN3d9W1An-44" target="-CeY543HGaaSN3d9W1An-46">
          <mxGeometry width="50" height="50" relative="1" as="geometry">
            <mxPoint x="50" y="200" as="sourcePoint" />
            <mxPoint x="95" y="170" as="targetPoint" />
          </mxGeometry>
        </mxCell>
        <mxCell id="-CeY543HGaaSN3d9W1An-51" value="&lt;b&gt;Transactions&lt;/b&gt;" style="text;html=1;strokeColor=none;fillColor=none;align=center;verticalAlign=middle;whiteSpace=wrap;rounded=0;" vertex="1" parent="1">
          <mxGeometry x="70" y="220" width="60" height="20" as="geometry" />
        </mxCell>
        <mxCell id="-CeY543HGaaSN3d9W1An-53" value="" style="group" vertex="1" connectable="0" parent="1">
          <mxGeometry x="185" y="450" width="280" height="40" as="geometry" />
        </mxCell>
        <mxCell id="-CeY543HGaaSN3d9W1An-39" value="" style="group" vertex="1" connectable="0" parent="-CeY543HGaaSN3d9W1An-53">
          <mxGeometry y="16" width="280" height="24" as="geometry" />
        </mxCell>
        <mxCell id="-CeY543HGaaSN3d9W1An-28" value="Genesis Block" style="rounded=0;whiteSpace=wrap;html=1;fillColor=#f8cecc;strokeColor=#b85450;" vertex="1" parent="-CeY543HGaaSN3d9W1An-39">
          <mxGeometry width="71.11111111111111" height="24" as="geometry" />
        </mxCell>
        <mxCell id="-CeY543HGaaSN3d9W1An-29" value="Block 1" style="rounded=0;whiteSpace=wrap;html=1;fillColor=#f8cecc;strokeColor=#b85450;" vertex="1" parent="-CeY543HGaaSN3d9W1An-39">
          <mxGeometry x="106.66666666666666" width="71.11111111111111" height="24" as="geometry" />
        </mxCell>
        <mxCell id="-CeY543HGaaSN3d9W1An-30" value="" style="endArrow=classic;startArrow=classic;html=1;rounded=0;exitX=1;exitY=0.5;exitDx=0;exitDy=0;entryX=0;entryY=0.5;entryDx=0;entryDy=0;" edge="1" parent="-CeY543HGaaSN3d9W1An-39" source="-CeY543HGaaSN3d9W1An-28" target="-CeY543HGaaSN3d9W1An-29">
          <mxGeometry width="50" height="50" relative="1" as="geometry">
            <mxPoint x="204.44444444444446" y="-84" as="sourcePoint" />
            <mxPoint x="302.22222222222223" y="60" as="targetPoint" />
          </mxGeometry>
        </mxCell>
        <mxCell id="-CeY543HGaaSN3d9W1An-31" value="Block 2" style="rounded=0;whiteSpace=wrap;html=1;fillColor=#f8cecc;strokeColor=#b85450;" vertex="1" parent="-CeY543HGaaSN3d9W1An-39">
          <mxGeometry x="208.88888888888889" width="71.11111111111111" height="24" as="geometry" />
        </mxCell>
        <mxCell id="-CeY543HGaaSN3d9W1An-32" value="" style="endArrow=classic;startArrow=classic;html=1;rounded=0;entryX=0;entryY=0.5;entryDx=0;entryDy=0;exitX=1;exitY=0.5;exitDx=0;exitDy=0;" edge="1" parent="-CeY543HGaaSN3d9W1An-39" source="-CeY543HGaaSN3d9W1An-29" target="-CeY543HGaaSN3d9W1An-31">
          <mxGeometry width="50" height="50" relative="1" as="geometry">
            <mxPoint x="302.22222222222223" y="66" as="sourcePoint" />
            <mxPoint x="346.6666666666667" y="66" as="targetPoint" />
          </mxGeometry>
        </mxCell>
        <mxCell id="-CeY543HGaaSN3d9W1An-40" value="&lt;b&gt;Ephemeral Chain&lt;/b&gt;" style="text;html=1;strokeColor=none;fillColor=none;align=center;verticalAlign=middle;whiteSpace=wrap;rounded=0;" vertex="1" parent="-CeY543HGaaSN3d9W1An-53">
          <mxGeometry x="67.58620689655173" width="115.86206896551725" height="8" as="geometry" />
        </mxCell>
        <mxCell id="-CeY543HGaaSN3d9W1An-169" value="&lt;b&gt;Append&lt;/b&gt;" style="text;html=1;strokeColor=none;fillColor=none;align=center;verticalAlign=middle;whiteSpace=wrap;rounded=0;" vertex="1" parent="-CeY543HGaaSN3d9W1An-53">
          <mxGeometry x="225" y="-2" width="30" height="10" as="geometry" />
        </mxCell>
        <mxCell id="-CeY543HGaaSN3d9W1An-55" value="&lt;b&gt;Transaction Processing&lt;/b&gt;" style="text;html=1;strokeColor=none;fillColor=none;align=center;verticalAlign=middle;whiteSpace=wrap;rounded=0;" vertex="1" parent="1">
          <mxGeometry x="50" y="40" width="150" height="10" as="geometry" />
        </mxCell>
        <mxCell id="-CeY543HGaaSN3d9W1An-58" value="" style="endArrow=classic;startArrow=classic;html=1;rounded=0;" edge="1" parent="1">
          <mxGeometry width="50" height="50" relative="1" as="geometry">
            <mxPoint x="220" y="40" as="sourcePoint" />
            <mxPoint x="440" y="40" as="targetPoint" />
          </mxGeometry>
        </mxCell>
        <mxCell id="-CeY543HGaaSN3d9W1An-59" value="&lt;b&gt;Intra-Quorum &lt;br&gt;Competition Phase&lt;/b&gt;" style="text;html=1;strokeColor=none;fillColor=none;align=center;verticalAlign=middle;whiteSpace=wrap;rounded=0;" vertex="1" parent="1">
          <mxGeometry x="250" y="20" width="150" height="10" as="geometry" />
        </mxCell>
        <mxCell id="-CeY543HGaaSN3d9W1An-61" value="" style="endArrow=none;html=1;rounded=0;entryX=0.34;entryY=1.3;entryDx=0;entryDy=0;entryPerimeter=0;" edge="1" parent="1" target="-CeY543HGaaSN3d9W1An-62">
          <mxGeometry width="50" height="50" relative="1" as="geometry">
            <mxPoint x="290" y="420" as="sourcePoint" />
            <mxPoint x="290" y="80" as="targetPoint" />
          </mxGeometry>
        </mxCell>
        <mxCell id="-CeY543HGaaSN3d9W1An-60" value="&lt;b&gt;Propose&lt;/b&gt;" style="text;html=1;strokeColor=none;fillColor=none;align=center;verticalAlign=middle;whiteSpace=wrap;rounded=0;" vertex="1" parent="1">
          <mxGeometry x="170" y="60" width="150" height="10" as="geometry" />
        </mxCell>
        <mxCell id="-CeY543HGaaSN3d9W1An-62" value="&lt;b&gt;Commit&lt;/b&gt;" style="text;html=1;strokeColor=none;fillColor=none;align=center;verticalAlign=middle;whiteSpace=wrap;rounded=0;" vertex="1" parent="1">
          <mxGeometry x="240" y="60" width="150" height="10" as="geometry" />
        </mxCell>
        <mxCell id="-CeY543HGaaSN3d9W1An-63" value="" style="endArrow=none;html=1;rounded=0;entryX=0.25;entryY=1;entryDx=0;entryDy=0;" edge="1" parent="1" target="-CeY543HGaaSN3d9W1An-64">
          <mxGeometry width="50" height="50" relative="1" as="geometry">
            <mxPoint x="361" y="420" as="sourcePoint" />
            <mxPoint x="361" y="63" as="targetPoint" />
          </mxGeometry>
        </mxCell>
        <mxCell id="-CeY543HGaaSN3d9W1An-64" value="&lt;b&gt;Finalise&lt;/b&gt;" style="text;html=1;strokeColor=none;fillColor=none;align=center;verticalAlign=middle;whiteSpace=wrap;rounded=0;" vertex="1" parent="1">
          <mxGeometry x="320" y="60" width="150" height="10" as="geometry" />
        </mxCell>
        <mxCell id="-CeY543HGaaSN3d9W1An-65" value="" style="endArrow=none;html=1;rounded=0;entryX=0.25;entryY=1;entryDx=0;entryDy=0;" edge="1" parent="1">
          <mxGeometry width="50" height="50" relative="1" as="geometry">
            <mxPoint x="428" y="420" as="sourcePoint" />
            <mxPoint x="425" y="70" as="targetPoint" />
          </mxGeometry>
        </mxCell>
        <mxCell id="1vKWB840Vi9tyg2xtz6n-20" value="" style="rounded=0;whiteSpace=wrap;html=1;fillColor=#fff2cc;strokeColor=#d6b656;" parent="1" vertex="1">
          <mxGeometry x="115" y="250" width="70" height="140" as="geometry" />
        </mxCell>
        <mxCell id="-CeY543HGaaSN3d9W1An-25" value="" style="group" vertex="1" connectable="0" parent="1">
          <mxGeometry x="115" y="250" width="80" height="130" as="geometry" />
        </mxCell>
        <mxCell id="1vKWB840Vi9tyg2xtz6n-26" value="&lt;b&gt;Node 4&lt;/b&gt;" style="shape=umlActor;verticalLabelPosition=bottom;verticalAlign=top;html=1;outlineConnect=0;fillColor=#dae8fc;strokeColor=#6c8ebf;" parent="-CeY543HGaaSN3d9W1An-25" vertex="1">
          <mxGeometry x="30" y="11.666666666666664" width="10" height="21.666666666666664" as="geometry" />
        </mxCell>
        <mxCell id="1vKWB840Vi9tyg2xtz6n-27" value="&lt;b&gt;Node 5&lt;/b&gt;" style="shape=umlActor;verticalLabelPosition=bottom;verticalAlign=top;html=1;outlineConnect=0;fillColor=#d5e8d4;strokeColor=#82b366;" parent="-CeY543HGaaSN3d9W1An-25" vertex="1">
          <mxGeometry x="30" y="55" width="10" height="21.666666666666664" as="geometry" />
        </mxCell>
        <mxCell id="1vKWB840Vi9tyg2xtz6n-28" value="&lt;b&gt;Node 6&lt;/b&gt;" style="shape=umlActor;verticalLabelPosition=bottom;verticalAlign=top;html=1;outlineConnect=0;fillColor=#e1d5e7;strokeColor=#9673a6;" parent="-CeY543HGaaSN3d9W1An-25" vertex="1">
          <mxGeometry x="30" y="98.33333333333333" width="10" height="21.666666666666664" as="geometry" />
        </mxCell>
        <mxCell id="-CeY543HGaaSN3d9W1An-2" value="&lt;b&gt;Quorum N+1&lt;/b&gt;" style="text;html=1;strokeColor=none;fillColor=none;align=center;verticalAlign=middle;whiteSpace=wrap;rounded=0;" vertex="1" parent="-CeY543HGaaSN3d9W1An-25">
          <mxGeometry width="80" height="10.833333333333332" as="geometry" />
        </mxCell>
        <mxCell id="-CeY543HGaaSN3d9W1An-69" value="" style="endArrow=classic;startArrow=classic;html=1;rounded=0;" edge="1" parent="1">
          <mxGeometry width="50" height="50" relative="1" as="geometry">
            <mxPoint x="460" y="40" as="sourcePoint" />
            <mxPoint x="700" y="40" as="targetPoint" />
          </mxGeometry>
        </mxCell>
        <mxCell id="-CeY543HGaaSN3d9W1An-70" value="&lt;b&gt;Inter-Quorum Phase&lt;/b&gt;" style="text;html=1;strokeColor=none;fillColor=none;align=center;verticalAlign=middle;whiteSpace=wrap;rounded=0;" vertex="1" parent="1">
          <mxGeometry x="480" y="20" width="150" height="10" as="geometry" />
        </mxCell>
        <mxCell id="-CeY543HGaaSN3d9W1An-73" value="" style="endArrow=classic;html=1;rounded=0;fillColor=#008a00;strokeColor=#005700;" edge="1" parent="1">
          <mxGeometry width="50" height="50" relative="1" as="geometry">
            <mxPoint x="220" y="120" as="sourcePoint" />
            <mxPoint x="240" y="200" as="targetPoint" />
          </mxGeometry>
        </mxCell>
        <mxCell id="-CeY543HGaaSN3d9W1An-74" value="" style="endArrow=classic;html=1;rounded=0;fillColor=#008a00;strokeColor=#005700;" edge="1" parent="1">
          <mxGeometry width="50" height="50" relative="1" as="geometry">
            <mxPoint x="220" y="120" as="sourcePoint" />
            <mxPoint x="260" y="200" as="targetPoint" />
          </mxGeometry>
        </mxCell>
        <mxCell id="-CeY543HGaaSN3d9W1An-75" value="" style="endArrow=classic;html=1;rounded=0;fillColor=#0050ef;strokeColor=#001DBC;" edge="1" parent="1">
          <mxGeometry width="50" height="50" relative="1" as="geometry">
            <mxPoint x="220" y="200" as="sourcePoint" />
            <mxPoint x="260" y="120" as="targetPoint" />
          </mxGeometry>
        </mxCell>
        <mxCell id="-CeY543HGaaSN3d9W1An-76" value="" style="endArrow=classic;html=1;rounded=0;fillColor=#0050ef;strokeColor=#001DBC;" edge="1" parent="1">
          <mxGeometry width="50" height="50" relative="1" as="geometry">
            <mxPoint x="220" y="200" as="sourcePoint" />
            <mxPoint x="260" y="160" as="targetPoint" />
          </mxGeometry>
        </mxCell>
        <mxCell id="-CeY543HGaaSN3d9W1An-77" value="" style="endArrow=classic;html=1;rounded=0;fillColor=#008a00;strokeColor=#005700;" edge="1" parent="1">
          <mxGeometry width="50" height="50" relative="1" as="geometry">
            <mxPoint x="300" y="120" as="sourcePoint" />
            <mxPoint x="320" y="200" as="targetPoint" />
          </mxGeometry>
        </mxCell>
        <mxCell id="-CeY543HGaaSN3d9W1An-78" value="" style="endArrow=classic;html=1;rounded=0;fillColor=#008a00;strokeColor=#005700;" edge="1" parent="1">
          <mxGeometry width="50" height="50" relative="1" as="geometry">
            <mxPoint x="300" y="160" as="sourcePoint" />
            <mxPoint x="330" y="120" as="targetPoint" />
          </mxGeometry>
        </mxCell>
        <mxCell id="-CeY543HGaaSN3d9W1An-79" value="" style="endArrow=classic;html=1;rounded=0;fillColor=#008a00;strokeColor=#005700;" edge="1" parent="1">
          <mxGeometry width="50" height="50" relative="1" as="geometry">
            <mxPoint x="300" y="160" as="sourcePoint" />
            <mxPoint x="340" y="200" as="targetPoint" />
          </mxGeometry>
        </mxCell>
        <mxCell id="-CeY543HGaaSN3d9W1An-80" value="" style="endArrow=classic;html=1;rounded=0;fillColor=#008a00;strokeColor=#005700;" edge="1" parent="1">
          <mxGeometry width="50" height="50" relative="1" as="geometry">
            <mxPoint x="300" y="120" as="sourcePoint" />
            <mxPoint x="330" y="160" as="targetPoint" />
          </mxGeometry>
        </mxCell>
        <mxCell id="-CeY543HGaaSN3d9W1An-81" value="" style="endArrow=classic;html=1;rounded=0;fillColor=#008a00;strokeColor=#005700;" edge="1" parent="1">
          <mxGeometry width="50" height="50" relative="1" as="geometry">
            <mxPoint x="300" y="200" as="sourcePoint" />
            <mxPoint x="350" y="120" as="targetPoint" />
          </mxGeometry>
        </mxCell>
        <mxCell id="-CeY543HGaaSN3d9W1An-82" value="" style="endArrow=classic;html=1;rounded=0;fillColor=#008a00;strokeColor=#005700;" edge="1" parent="1">
          <mxGeometry width="50" height="50" relative="1" as="geometry">
            <mxPoint x="300" y="200" as="sourcePoint" />
            <mxPoint x="340" y="160" as="targetPoint" />
          </mxGeometry>
        </mxCell>
        <mxCell id="-CeY543HGaaSN3d9W1An-83" value="" style="endArrow=classic;html=1;rounded=0;fillColor=#008a00;strokeColor=#005700;" edge="1" parent="1">
          <mxGeometry width="50" height="50" relative="1" as="geometry">
            <mxPoint x="370" y="120" as="sourcePoint" />
            <mxPoint x="380" y="200" as="targetPoint" />
          </mxGeometry>
        </mxCell>
        <mxCell id="-CeY543HGaaSN3d9W1An-84" value="" style="endArrow=classic;html=1;rounded=0;fillColor=#008a00;strokeColor=#005700;" edge="1" parent="1">
          <mxGeometry width="50" height="50" relative="1" as="geometry">
            <mxPoint x="370" y="120" as="sourcePoint" />
            <mxPoint x="390" y="160" as="targetPoint" />
          </mxGeometry>
        </mxCell>
        <mxCell id="-CeY543HGaaSN3d9W1An-86" value="" style="whiteSpace=wrap;html=1;aspect=fixed;fillColor=#b0e3e6;strokeColor=#0e8088;" vertex="1" parent="1">
          <mxGeometry x="370" y="90" width="20" height="20" as="geometry" />
        </mxCell>
        <mxCell id="-CeY543HGaaSN3d9W1An-89" value="" style="endArrow=classic;startArrow=classic;html=1;rounded=0;fillColor=#e51400;strokeColor=#B20000;strokeWidth=2;" edge="1" parent="1">
          <mxGeometry width="50" height="50" relative="1" as="geometry">
            <mxPoint x="170" y="429" as="sourcePoint" />
            <mxPoint x="800" y="429" as="targetPoint" />
          </mxGeometry>
        </mxCell>
        <mxCell id="-CeY543HGaaSN3d9W1An-90" value="&lt;b&gt;If Timeout =? Round Change&lt;/b&gt;" style="text;html=1;strokeColor=#B09500;fillColor=#e3c800;align=center;verticalAlign=middle;whiteSpace=wrap;rounded=0;fontColor=#000000;" vertex="1" parent="1">
          <mxGeometry x="460" y="410" width="180" height="20" as="geometry" />
        </mxCell>
        <mxCell id="-CeY543HGaaSN3d9W1An-93" value="" style="whiteSpace=wrap;html=1;aspect=fixed;fillColor=#b0e3e6;strokeColor=#0e8088;" vertex="1" parent="1">
          <mxGeometry x="315" y="90" width="20" height="20" as="geometry" />
        </mxCell>
        <mxCell id="-CeY543HGaaSN3d9W1An-94" value="" style="whiteSpace=wrap;html=1;aspect=fixed;fillColor=#b0e3e6;strokeColor=#0e8088;" vertex="1" parent="1">
          <mxGeometry x="235" y="90" width="20" height="20" as="geometry" />
        </mxCell>
        <mxCell id="-CeY543HGaaSN3d9W1An-95" value="" style="endArrow=classic;html=1;rounded=0;fillColor=#1ba1e2;strokeColor=#006EAF;" edge="1" parent="1">
          <mxGeometry width="50" height="50" relative="1" as="geometry">
            <mxPoint x="220" y="280" as="sourcePoint" />
            <mxPoint x="240" y="320" as="targetPoint" />
          </mxGeometry>
        </mxCell>
        <mxCell id="-CeY543HGaaSN3d9W1An-96" value="" style="endArrow=classic;html=1;rounded=0;fillColor=#1ba1e2;strokeColor=#006EAF;" edge="1" parent="1">
          <mxGeometry width="50" height="50" relative="1" as="geometry">
            <mxPoint x="220" y="280" as="sourcePoint" />
            <mxPoint x="240" y="360" as="targetPoint" />
          </mxGeometry>
        </mxCell>
        <mxCell id="-CeY543HGaaSN3d9W1An-97" value="" style="endArrow=classic;html=1;rounded=0;fillColor=#d80073;strokeColor=#A50040;" edge="1" parent="1">
          <mxGeometry width="50" height="50" relative="1" as="geometry">
            <mxPoint x="220" y="360" as="sourcePoint" />
            <mxPoint x="250" y="280" as="targetPoint" />
          </mxGeometry>
        </mxCell>
        <mxCell id="-CeY543HGaaSN3d9W1An-98" value="" style="endArrow=classic;html=1;rounded=0;fillColor=#d80073;strokeColor=#A50040;" edge="1" parent="1">
          <mxGeometry width="50" height="50" relative="1" as="geometry">
            <mxPoint x="220" y="360" as="sourcePoint" />
            <mxPoint x="250" y="320" as="targetPoint" />
          </mxGeometry>
        </mxCell>
        <mxCell id="-CeY543HGaaSN3d9W1An-99" value="" style="endArrow=classic;html=1;rounded=0;fillColor=#d80073;strokeColor=#A50040;" edge="1" parent="1">
          <mxGeometry width="50" height="50" relative="1" as="geometry">
            <mxPoint x="300" y="320" as="sourcePoint" />
            <mxPoint x="340" y="280" as="targetPoint" />
          </mxGeometry>
        </mxCell>
        <mxCell id="-CeY543HGaaSN3d9W1An-100" value="" style="endArrow=classic;html=1;rounded=0;fillColor=#d80073;strokeColor=#A50040;" edge="1" parent="1">
          <mxGeometry width="50" height="50" relative="1" as="geometry">
            <mxPoint x="300" y="320" as="sourcePoint" />
            <mxPoint x="330" y="360" as="targetPoint" />
          </mxGeometry>
        </mxCell>
        <mxCell id="-CeY543HGaaSN3d9W1An-101" value="" style="endArrow=classic;html=1;rounded=0;fillColor=#d80073;strokeColor=#A50040;" edge="1" parent="1">
          <mxGeometry width="50" height="50" relative="1" as="geometry">
            <mxPoint x="310" y="360" as="sourcePoint" />
            <mxPoint x="320" y="280" as="targetPoint" />
          </mxGeometry>
        </mxCell>
        <mxCell id="-CeY543HGaaSN3d9W1An-102" value="" style="endArrow=classic;html=1;rounded=0;fillColor=#d80073;strokeColor=#A50040;" edge="1" parent="1">
          <mxGeometry width="50" height="50" relative="1" as="geometry">
            <mxPoint x="310" y="360" as="sourcePoint" />
            <mxPoint x="330" y="320" as="targetPoint" />
          </mxGeometry>
        </mxCell>
        <mxCell id="-CeY543HGaaSN3d9W1An-103" value="" style="endArrow=classic;html=1;rounded=0;fillColor=#d80073;strokeColor=#A50040;" edge="1" parent="1">
          <mxGeometry width="50" height="50" relative="1" as="geometry">
            <mxPoint x="300" y="280" as="sourcePoint" />
            <mxPoint x="340" y="360" as="targetPoint" />
          </mxGeometry>
        </mxCell>
        <mxCell id="-CeY543HGaaSN3d9W1An-104" value="" style="endArrow=classic;html=1;rounded=0;fillColor=#d80073;strokeColor=#A50040;" edge="1" parent="1">
          <mxGeometry width="50" height="50" relative="1" as="geometry">
            <mxPoint x="300" y="280" as="sourcePoint" />
            <mxPoint x="340" y="320" as="targetPoint" />
          </mxGeometry>
        </mxCell>
        <mxCell id="-CeY543HGaaSN3d9W1An-106" value="" style="group" vertex="1" connectable="0" parent="1">
          <mxGeometry x="460" y="90" width="60" height="20" as="geometry" />
        </mxCell>
        <mxCell id="-CeY543HGaaSN3d9W1An-107" value="" style="group;fillColor=#ffcc99;strokeColor=#36393d;container=0;" vertex="1" connectable="0" parent="-CeY543HGaaSN3d9W1An-106">
          <mxGeometry width="60" height="20" as="geometry" />
        </mxCell>
        <mxCell id="-CeY543HGaaSN3d9W1An-109" value="" style="whiteSpace=wrap;html=1;aspect=fixed;fillColor=#b0e3e6;strokeColor=#0e8088;" vertex="1" parent="-CeY543HGaaSN3d9W1An-106">
          <mxGeometry x="7.5" y="5" width="10" height="10" as="geometry" />
        </mxCell>
        <mxCell id="-CeY543HGaaSN3d9W1An-110" value="" style="whiteSpace=wrap;html=1;aspect=fixed;fillColor=#ffff88;strokeColor=#36393d;" vertex="1" parent="-CeY543HGaaSN3d9W1An-106">
          <mxGeometry x="37.5" y="5" width="10" height="10" as="geometry" />
        </mxCell>
        <mxCell id="-CeY543HGaaSN3d9W1An-36" value="" style="group;fillColor=#ffe6cc;strokeColor=#d79b00;container=0;" vertex="1" connectable="0" parent="1">
          <mxGeometry x="15" y="410" width="90" height="40" as="geometry" />
        </mxCell>
        <mxCell id="-CeY543HGaaSN3d9W1An-11" value="" style="whiteSpace=wrap;html=1;aspect=fixed;fillColor=#b0e3e6;strokeColor=#0e8088;" vertex="1" parent="1">
          <mxGeometry x="30" y="420" width="20" height="20" as="geometry" />
        </mxCell>
        <mxCell id="-CeY543HGaaSN3d9W1An-13" value="" style="whiteSpace=wrap;html=1;aspect=fixed;fillColor=#ffff88;strokeColor=#36393d;" vertex="1" parent="1">
          <mxGeometry x="70" y="420" width="20" height="20" as="geometry" />
        </mxCell>
        <mxCell id="-CeY543HGaaSN3d9W1An-111" value="" style="whiteSpace=wrap;html=1;aspect=fixed;fillColor=#ffff88;strokeColor=#36393d;" vertex="1" parent="1">
          <mxGeometry x="240" y="250" width="20" height="20" as="geometry" />
        </mxCell>
        <mxCell id="-CeY543HGaaSN3d9W1An-112" value="" style="whiteSpace=wrap;html=1;aspect=fixed;fillColor=#ffff88;strokeColor=#36393d;" vertex="1" parent="1">
          <mxGeometry x="330" y="250" width="20" height="20" as="geometry" />
        </mxCell>
        <mxCell id="-CeY543HGaaSN3d9W1An-113" value="" style="whiteSpace=wrap;html=1;aspect=fixed;fillColor=#ffff88;strokeColor=#36393d;" vertex="1" parent="1">
          <mxGeometry x="385" y="250" width="20" height="20" as="geometry" />
        </mxCell>
        <mxCell id="-CeY543HGaaSN3d9W1An-114" value="" style="endArrow=classic;html=1;rounded=0;fillColor=#d80073;strokeColor=#A50040;" edge="1" parent="1">
          <mxGeometry width="50" height="50" relative="1" as="geometry">
            <mxPoint x="380" y="280" as="sourcePoint" />
            <mxPoint x="400" y="320" as="targetPoint" />
          </mxGeometry>
        </mxCell>
        <mxCell id="-CeY543HGaaSN3d9W1An-115" value="" style="endArrow=classic;html=1;rounded=0;fillColor=#d80073;strokeColor=#A50040;" edge="1" parent="1">
          <mxGeometry width="50" height="50" relative="1" as="geometry">
            <mxPoint x="380" y="280" as="sourcePoint" />
            <mxPoint x="400" y="360" as="targetPoint" />
          </mxGeometry>
        </mxCell>
        <mxCell id="-CeY543HGaaSN3d9W1An-117" value="&lt;b&gt;Full Block&lt;/b&gt;" style="text;html=1;strokeColor=none;fillColor=none;align=center;verticalAlign=middle;whiteSpace=wrap;rounded=0;" vertex="1" parent="1">
          <mxGeometry x="460" y="60" width="60" height="10" as="geometry" />
        </mxCell>
        <mxCell id="-CeY543HGaaSN3d9W1An-118" value="" style="endArrow=classic;html=1;rounded=0;" edge="1" parent="1">
          <mxGeometry width="50" height="50" relative="1" as="geometry">
            <mxPoint x="450" y="160" as="sourcePoint" />
            <mxPoint x="510" y="320" as="targetPoint" />
          </mxGeometry>
        </mxCell>
        <mxCell id="-CeY543HGaaSN3d9W1An-119" value="" style="endArrow=none;html=1;rounded=0;entryX=0.25;entryY=1;entryDx=0;entryDy=0;" edge="1" parent="1">
          <mxGeometry width="50" height="50" relative="1" as="geometry">
            <mxPoint x="533" y="420" as="sourcePoint" />
            <mxPoint x="530" y="70" as="targetPoint" />
          </mxGeometry>
        </mxCell>
        <mxCell id="-CeY543HGaaSN3d9W1An-120" value="" style="endArrow=none;html=1;rounded=0;entryX=0.25;entryY=1;entryDx=0;entryDy=0;" edge="1" parent="1">
          <mxGeometry width="50" height="50" relative="1" as="geometry">
            <mxPoint x="603" y="420" as="sourcePoint" />
            <mxPoint x="600" y="70" as="targetPoint" />
          </mxGeometry>
        </mxCell>
        <mxCell id="-CeY543HGaaSN3d9W1An-121" value="&lt;b&gt;Heart Beat every time t&lt;/b&gt;" style="text;html=1;strokeColor=none;fillColor=none;align=center;verticalAlign=middle;whiteSpace=wrap;rounded=0;" vertex="1" parent="1">
          <mxGeometry x="530" y="60" width="70" height="10" as="geometry" />
        </mxCell>
        <mxCell id="-CeY543HGaaSN3d9W1An-127" value="" style="endArrow=classic;html=1;rounded=0;" edge="1" parent="1">
          <mxGeometry width="50" height="50" relative="1" as="geometry">
            <mxPoint x="530" y="120" as="sourcePoint" />
            <mxPoint x="560" y="160" as="targetPoint" />
          </mxGeometry>
        </mxCell>
        <mxCell id="-CeY543HGaaSN3d9W1An-128" value="" style="endArrow=classic;html=1;rounded=0;" edge="1" parent="1">
          <mxGeometry width="50" height="50" relative="1" as="geometry">
            <mxPoint x="530" y="120" as="sourcePoint" />
            <mxPoint x="560" y="200" as="targetPoint" />
          </mxGeometry>
        </mxCell>
        <mxCell id="-CeY543HGaaSN3d9W1An-129" value="" style="endArrow=classic;html=1;rounded=0;" edge="1" parent="1">
          <mxGeometry width="50" height="50" relative="1" as="geometry">
            <mxPoint x="530" y="120" as="sourcePoint" />
            <mxPoint x="560" y="280" as="targetPoint" />
          </mxGeometry>
        </mxCell>
        <mxCell id="-CeY543HGaaSN3d9W1An-130" value="" style="endArrow=classic;html=1;rounded=0;" edge="1" parent="1">
          <mxGeometry width="50" height="50" relative="1" as="geometry">
            <mxPoint x="530" y="120" as="sourcePoint" />
            <mxPoint x="560" y="330" as="targetPoint" />
          </mxGeometry>
        </mxCell>
        <mxCell id="-CeY543HGaaSN3d9W1An-131" value="" style="endArrow=classic;html=1;rounded=0;" edge="1" parent="1">
          <mxGeometry width="50" height="50" relative="1" as="geometry">
            <mxPoint x="530" y="120" as="sourcePoint" />
            <mxPoint x="560" y="360" as="targetPoint" />
          </mxGeometry>
        </mxCell>
        <mxCell id="-CeY543HGaaSN3d9W1An-132" value="" style="endArrow=classic;html=1;rounded=0;" edge="1" parent="1">
          <mxGeometry width="50" height="50" relative="1" as="geometry">
            <mxPoint x="540" y="160" as="sourcePoint" />
            <mxPoint x="560" y="120" as="targetPoint" />
          </mxGeometry>
        </mxCell>
        <mxCell id="-CeY543HGaaSN3d9W1An-133" value="" style="endArrow=classic;html=1;rounded=0;" edge="1" parent="1">
          <mxGeometry width="50" height="50" relative="1" as="geometry">
            <mxPoint x="540" y="160" as="sourcePoint" />
            <mxPoint x="570" y="200" as="targetPoint" />
          </mxGeometry>
        </mxCell>
        <mxCell id="-CeY543HGaaSN3d9W1An-134" value="" style="endArrow=classic;html=1;rounded=0;" edge="1" parent="1">
          <mxGeometry width="50" height="50" relative="1" as="geometry">
            <mxPoint x="540" y="160" as="sourcePoint" />
            <mxPoint x="580" y="280" as="targetPoint" />
          </mxGeometry>
        </mxCell>
        <mxCell id="-CeY543HGaaSN3d9W1An-135" value="" style="endArrow=classic;html=1;rounded=0;" edge="1" parent="1">
          <mxGeometry width="50" height="50" relative="1" as="geometry">
            <mxPoint x="540" y="160" as="sourcePoint" />
            <mxPoint x="580" y="320" as="targetPoint" />
          </mxGeometry>
        </mxCell>
        <mxCell id="-CeY543HGaaSN3d9W1An-136" value="" style="endArrow=classic;html=1;rounded=0;" edge="1" parent="1">
          <mxGeometry width="50" height="50" relative="1" as="geometry">
            <mxPoint x="540" y="160" as="sourcePoint" />
            <mxPoint x="580" y="360" as="targetPoint" />
          </mxGeometry>
        </mxCell>
        <mxCell id="-CeY543HGaaSN3d9W1An-137" value="" style="endArrow=classic;html=1;rounded=0;" edge="1" parent="1">
          <mxGeometry width="50" height="50" relative="1" as="geometry">
            <mxPoint x="540" y="280" as="sourcePoint" />
            <mxPoint x="580" y="120" as="targetPoint" />
          </mxGeometry>
        </mxCell>
        <mxCell id="-CeY543HGaaSN3d9W1An-138" value="" style="endArrow=classic;html=1;rounded=0;" edge="1" parent="1">
          <mxGeometry width="50" height="50" relative="1" as="geometry">
            <mxPoint x="540" y="280" as="sourcePoint" />
            <mxPoint x="580" y="160" as="targetPoint" />
          </mxGeometry>
        </mxCell>
        <mxCell id="-CeY543HGaaSN3d9W1An-139" value="" style="endArrow=classic;html=1;rounded=0;" edge="1" parent="1">
          <mxGeometry width="50" height="50" relative="1" as="geometry">
            <mxPoint x="540" y="280" as="sourcePoint" />
            <mxPoint x="580" y="200" as="targetPoint" />
          </mxGeometry>
        </mxCell>
        <mxCell id="-CeY543HGaaSN3d9W1An-140" value="" style="endArrow=classic;html=1;rounded=0;" edge="1" parent="1">
          <mxGeometry width="50" height="50" relative="1" as="geometry">
            <mxPoint x="540" y="320" as="sourcePoint" />
            <mxPoint x="590" y="200" as="targetPoint" />
          </mxGeometry>
        </mxCell>
        <mxCell id="-CeY543HGaaSN3d9W1An-141" value="" style="endArrow=classic;html=1;rounded=0;" edge="1" parent="1">
          <mxGeometry width="50" height="50" relative="1" as="geometry">
            <mxPoint x="540" y="280" as="sourcePoint" />
            <mxPoint x="580" y="360" as="targetPoint" />
          </mxGeometry>
        </mxCell>
        <mxCell id="-CeY543HGaaSN3d9W1An-142" value="" style="endArrow=classic;html=1;rounded=0;" edge="1" parent="1">
          <mxGeometry width="50" height="50" relative="1" as="geometry">
            <mxPoint x="540" y="320" as="sourcePoint" />
            <mxPoint x="580" y="280" as="targetPoint" />
          </mxGeometry>
        </mxCell>
        <mxCell id="-CeY543HGaaSN3d9W1An-143" value="" style="endArrow=classic;html=1;rounded=0;" edge="1" parent="1">
          <mxGeometry width="50" height="50" relative="1" as="geometry">
            <mxPoint x="540" y="320" as="sourcePoint" />
            <mxPoint x="580" y="360" as="targetPoint" />
          </mxGeometry>
        </mxCell>
        <mxCell id="-CeY543HGaaSN3d9W1An-144" value="" style="endArrow=classic;html=1;rounded=0;" edge="1" parent="1">
          <mxGeometry width="50" height="50" relative="1" as="geometry">
            <mxPoint x="550" y="360" as="sourcePoint" />
            <mxPoint x="580" y="200" as="targetPoint" />
          </mxGeometry>
        </mxCell>
        <mxCell id="-CeY543HGaaSN3d9W1An-145" value="" style="endArrow=classic;html=1;rounded=0;" edge="1" parent="1">
          <mxGeometry width="50" height="50" relative="1" as="geometry">
            <mxPoint x="550" y="360" as="sourcePoint" />
            <mxPoint x="590" y="280" as="targetPoint" />
          </mxGeometry>
        </mxCell>
        <mxCell id="-CeY543HGaaSN3d9W1An-146" value="" style="endArrow=none;html=1;rounded=0;entryX=0.25;entryY=1;entryDx=0;entryDy=0;" edge="1" parent="1">
          <mxGeometry width="50" height="50" relative="1" as="geometry">
            <mxPoint x="703" y="420" as="sourcePoint" />
            <mxPoint x="700" y="70" as="targetPoint" />
          </mxGeometry>
        </mxCell>
        <mxCell id="-CeY543HGaaSN3d9W1An-147" value="&lt;b&gt;If NewEpoch =? New Quorum&lt;/b&gt;" style="text;html=1;strokeColor=#B09500;fillColor=#e3c800;align=center;verticalAlign=middle;whiteSpace=wrap;rounded=0;fontColor=#000000;" vertex="1" parent="1">
          <mxGeometry x="600" y="50" width="180" height="20" as="geometry" />
        </mxCell>
        <mxCell id="-CeY543HGaaSN3d9W1An-148" value="" style="endArrow=classic;html=1;rounded=0;" edge="1" parent="1">
          <mxGeometry width="50" height="50" relative="1" as="geometry">
            <mxPoint x="610" y="280" as="sourcePoint" />
            <mxPoint x="630" y="160" as="targetPoint" />
          </mxGeometry>
        </mxCell>
        <mxCell id="-CeY543HGaaSN3d9W1An-149" value="" style="endArrow=classic;html=1;rounded=0;" edge="1" parent="1">
          <mxGeometry width="50" height="50" relative="1" as="geometry">
            <mxPoint x="610" y="280" as="sourcePoint" />
            <mxPoint x="650" y="120" as="targetPoint" />
          </mxGeometry>
        </mxCell>
        <mxCell id="-CeY543HGaaSN3d9W1An-150" value="" style="endArrow=classic;html=1;rounded=0;" edge="1" parent="1">
          <mxGeometry width="50" height="50" relative="1" as="geometry">
            <mxPoint x="450" y="160" as="sourcePoint" />
            <mxPoint x="490" y="360" as="targetPoint" />
          </mxGeometry>
        </mxCell>
        <mxCell id="-CeY543HGaaSN3d9W1An-151" value="" style="endArrow=classic;html=1;rounded=0;" edge="1" parent="1">
          <mxGeometry width="50" height="50" relative="1" as="geometry">
            <mxPoint x="450" y="160" as="sourcePoint" />
            <mxPoint x="480" y="280" as="targetPoint" />
          </mxGeometry>
        </mxCell>
        <mxCell id="-CeY543HGaaSN3d9W1An-152" value="" style="endArrow=classic;html=1;rounded=0;" edge="1" parent="1">
          <mxGeometry width="50" height="50" relative="1" as="geometry">
            <mxPoint x="450" y="160" as="sourcePoint" />
            <mxPoint x="490" y="120" as="targetPoint" />
          </mxGeometry>
        </mxCell>
        <mxCell id="-CeY543HGaaSN3d9W1An-153" value="" style="endArrow=classic;html=1;rounded=0;" edge="1" parent="1">
          <mxGeometry width="50" height="50" relative="1" as="geometry">
            <mxPoint x="450" y="160" as="sourcePoint" />
            <mxPoint x="490" y="200" as="targetPoint" />
          </mxGeometry>
        </mxCell>
        <mxCell id="-CeY543HGaaSN3d9W1An-154" value="" style="endArrow=classic;html=1;rounded=0;" edge="1" parent="1">
          <mxGeometry width="50" height="50" relative="1" as="geometry">
            <mxPoint x="610" y="280" as="sourcePoint" />
            <mxPoint x="650" y="200" as="targetPoint" />
          </mxGeometry>
        </mxCell>
        <mxCell id="-CeY543HGaaSN3d9W1An-155" value="" style="endArrow=classic;html=1;rounded=0;" edge="1" parent="1">
          <mxGeometry width="50" height="50" relative="1" as="geometry">
            <mxPoint x="610" y="280" as="sourcePoint" />
            <mxPoint x="640" y="360" as="targetPoint" />
          </mxGeometry>
        </mxCell>
        <mxCell id="-CeY543HGaaSN3d9W1An-156" value="" style="endArrow=classic;html=1;rounded=0;" edge="1" parent="1">
          <mxGeometry width="50" height="50" relative="1" as="geometry">
            <mxPoint x="610" y="280" as="sourcePoint" />
            <mxPoint x="640" y="320" as="targetPoint" />
          </mxGeometry>
        </mxCell>
        <mxCell id="-CeY543HGaaSN3d9W1An-157" value="&lt;b&gt;&lt;font style=&quot;font-size: 8px;&quot;&gt;New Quorum&lt;/font&gt;&lt;/b&gt;" style="shape=process;whiteSpace=wrap;html=1;backgroundOutline=1;fillColor=#cdeb8b;strokeColor=#36393d;" vertex="1" parent="1">
          <mxGeometry x="610" y="90" width="70" height="30" as="geometry" />
        </mxCell>
        <mxCell id="-CeY543HGaaSN3d9W1An-160" value="" style="endArrow=classic;html=1;rounded=0;exitX=0.75;exitY=1;exitDx=0;exitDy=0;entryX=0.5;entryY=0;entryDx=0;entryDy=0;" edge="1" parent="1" target="-CeY543HGaaSN3d9W1An-172">
          <mxGeometry width="50" height="50" relative="1" as="geometry">
            <mxPoint x="765" y="70" as="sourcePoint" />
            <mxPoint x="765" y="120" as="targetPoint" />
          </mxGeometry>
        </mxCell>
        <mxCell id="-CeY543HGaaSN3d9W1An-161" value="&lt;b&gt;Calculate Fair Utilitarian Score of Each Node&lt;/b&gt;" style="rounded=0;whiteSpace=wrap;html=1;" vertex="1" parent="1">
          <mxGeometry x="710" y="120" width="130" height="40" as="geometry" />
        </mxCell>
        <mxCell id="-CeY543HGaaSN3d9W1An-162" value="Sort &amp;amp; Classify Node based on Score" style="rounded=0;whiteSpace=wrap;html=1;fontStyle=1" vertex="1" parent="1">
          <mxGeometry x="710" y="170" width="130" height="30" as="geometry" />
        </mxCell>
        <mxCell id="-CeY543HGaaSN3d9W1An-163" value="Classify as Ideal Utilitarian, Utilitarian, Fair Utilitarian ,Weak Utilitarian" style="rounded=0;whiteSpace=wrap;html=1;fontStyle=1" vertex="1" parent="1">
          <mxGeometry x="710" y="210" width="130" height="60" as="geometry" />
        </mxCell>
        <mxCell id="-CeY543HGaaSN3d9W1An-164" value="Form New Quorum of Sortitioned Nodes" style="rounded=0;whiteSpace=wrap;html=1;fontStyle=1" vertex="1" parent="1">
          <mxGeometry x="710" y="290" width="130" height="30" as="geometry" />
        </mxCell>
        <mxCell id="-CeY543HGaaSN3d9W1An-167" value="" style="endArrow=classic;html=1;rounded=0;fillColor=#fa6800;strokeColor=#C73500;strokeWidth=2;exitX=0.5;exitY=1;exitDx=0;exitDy=0;entryX=0.1;entryY=0;entryDx=0;entryDy=0;entryPerimeter=0;" edge="1" parent="1" source="-CeY543HGaaSN3d9W1An-113" target="-CeY543HGaaSN3d9W1An-31">
          <mxGeometry width="50" height="50" relative="1" as="geometry">
            <mxPoint x="400" y="180" as="sourcePoint" />
            <mxPoint x="400" y="450" as="targetPoint" />
          </mxGeometry>
        </mxCell>
        <mxCell id="-CeY543HGaaSN3d9W1An-168" value="" style="endArrow=classic;html=1;rounded=0;fillColor=#fa6800;strokeColor=#C73500;strokeWidth=2;exitX=0.5;exitY=1;exitDx=0;exitDy=0;entryX=0.5;entryY=0;entryDx=0;entryDy=0;" edge="1" parent="1" target="-CeY543HGaaSN3d9W1An-8">
          <mxGeometry width="50" height="50" relative="1" as="geometry">
            <mxPoint x="505" y="110" as="sourcePoint" />
            <mxPoint x="510" y="290" as="targetPoint" />
            <Array as="points">
              <mxPoint x="510" y="440" />
              <mxPoint x="660" y="440" />
            </Array>
          </mxGeometry>
        </mxCell>
        <mxCell id="-CeY543HGaaSN3d9W1An-26" value="" style="group" vertex="1" connectable="0" parent="1">
          <mxGeometry x="510" y="460" width="290" height="30" as="geometry" />
        </mxCell>
        <mxCell id="-CeY543HGaaSN3d9W1An-7" value="Genesis Block" style="rounded=0;whiteSpace=wrap;html=1;fillColor=#d5e8d4;strokeColor=#82b366;" vertex="1" parent="-CeY543HGaaSN3d9W1An-26">
          <mxGeometry width="73.65079365079364" height="30" as="geometry" />
        </mxCell>
        <mxCell id="-CeY543HGaaSN3d9W1An-8" value="Block 1" style="rounded=0;whiteSpace=wrap;html=1;fillColor=#d5e8d4;strokeColor=#82b366;" vertex="1" parent="-CeY543HGaaSN3d9W1An-26">
          <mxGeometry x="110.47619047619047" width="73.65079365079364" height="30" as="geometry" />
        </mxCell>
        <mxCell id="-CeY543HGaaSN3d9W1An-16" value="" style="endArrow=classic;startArrow=classic;html=1;rounded=0;exitX=1;exitY=0.5;exitDx=0;exitDy=0;entryX=0;entryY=0.5;entryDx=0;entryDy=0;" edge="1" parent="-CeY543HGaaSN3d9W1An-26" source="-CeY543HGaaSN3d9W1An-7" target="-CeY543HGaaSN3d9W1An-8">
          <mxGeometry width="50" height="50" relative="1" as="geometry">
            <mxPoint x="211.74603174603175" y="-105" as="sourcePoint" />
            <mxPoint x="313.015873015873" y="75" as="targetPoint" />
          </mxGeometry>
        </mxCell>
        <mxCell id="-CeY543HGaaSN3d9W1An-17" value="Block 2" style="rounded=0;whiteSpace=wrap;html=1;fillColor=#d5e8d4;strokeColor=#82b366;" vertex="1" parent="-CeY543HGaaSN3d9W1An-26">
          <mxGeometry x="216.34920634920633" width="73.65079365079364" height="30" as="geometry" />
        </mxCell>
        <mxCell id="-CeY543HGaaSN3d9W1An-19" value="" style="endArrow=classic;startArrow=classic;html=1;rounded=0;entryX=0;entryY=0.5;entryDx=0;entryDy=0;exitX=1;exitY=0.5;exitDx=0;exitDy=0;" edge="1" parent="-CeY543HGaaSN3d9W1An-26" source="-CeY543HGaaSN3d9W1An-8" target="-CeY543HGaaSN3d9W1An-17">
          <mxGeometry width="50" height="50" relative="1" as="geometry">
            <mxPoint x="313.015873015873" y="82.5" as="sourcePoint" />
            <mxPoint x="359.04761904761904" y="82.5" as="targetPoint" />
          </mxGeometry>
        </mxCell>
        <mxCell id="-CeY543HGaaSN3d9W1An-37" value="&lt;b&gt;Finalised Chain&lt;/b&gt;" style="text;html=1;strokeColor=none;fillColor=none;align=center;verticalAlign=middle;whiteSpace=wrap;rounded=0;" vertex="1" parent="1">
          <mxGeometry x="540" y="450" width="100" height="10" as="geometry" />
        </mxCell>
        <mxCell id="-CeY543HGaaSN3d9W1An-172" value="If Low Score Suspend Node" style="rounded=0;whiteSpace=wrap;html=1;fontStyle=1" vertex="1" parent="1">
          <mxGeometry x="710" y="340" width="130" height="30" as="geometry" />
        </mxCell>
        <mxCell id="-CeY543HGaaSN3d9W1An-174" value="" style="endArrow=classic;html=1;rounded=0;fillColor=#008a00;strokeColor=#005700;" edge="1" parent="1">
          <mxGeometry width="50" height="50" relative="1" as="geometry">
            <mxPoint x="220" y="210" as="sourcePoint" />
            <mxPoint x="250" y="210" as="targetPoint" />
          </mxGeometry>
        </mxCell>
        <mxCell id="-CeY543HGaaSN3d9W1An-175" value="&lt;b&gt;Append&lt;/b&gt;" style="text;html=1;strokeColor=none;fillColor=none;align=center;verticalAlign=middle;whiteSpace=wrap;rounded=0;" vertex="1" parent="1">
          <mxGeometry x="670" y="438" width="30" height="10" as="geometry" />
        </mxCell>
        <mxCell id="-CeY543HGaaSN3d9W1An-176" value="Winner" style="text;html=1;strokeColor=none;fillColor=none;align=center;verticalAlign=middle;whiteSpace=wrap;rounded=0;" vertex="1" parent="1">
          <mxGeometry x="220" y="220" width="30" height="10" as="geometry" />
        </mxCell>
      </root>
    </mxGraphModel>
  </diagram>
</mxfile>
